<?xml version="1.0" standalone="no"?>
<!DOCTYPE svg PUBLIC "-//W3C//DTD SVG 20010904//EN"
 "http://www.w3.org/TR/2001/REC-SVG-20010904/DTD/svg10.dtd">
<svg version="1.0" xmlns="http://www.w3.org/2000/svg"
 width="816.000000pt" height="306.000000pt" viewBox="0 0 816.000000 306.000000"
 preserveAspectRatio="xMidYMid meet">

<g transform="translate(0.000000,306.000000) scale(0.100000,-0.100000)"
fill="#000000" stroke="none">
<path d="M6060 2465 c-168 -52 -267 -178 -279 -355 l-6 -85 -38 -6 c-73 -12
-127 -95 -113 -172 8 -44 53 -94 92 -102 16 -4 34 -8 40 -10 13 -4 23 -185 23
-413 1 -161 10 -195 66 -238 63 -47 176 -25 222 45 23 33 23 40 23 306 0 206
3 275 13 283 6 5 37 13 67 17 72 10 104 27 135 72 45 66 27 153 -38 193 -23
15 -50 20 -99 20 l-68 0 0 46 c0 39 5 51 34 80 32 32 35 33 107 31 66 -2 78 1
106 23 86 69 69 183 -37 248 -49 29 -61 32 -130 31 -41 0 -95 -7 -120 -14z"/>
<path d="M1735 2450 c-171 -5 -183 -6 -236 -33 -72 -35 -132 -100 -172 -185
l-32 -67 -8 -466 c-9 -520 -9 -530 51 -590 51 -50 106 -60 163 -27 80 44 84
55 87 261 2 155 5 184 19 195 12 8 60 12 155 12 157 0 187 8 235 63 53 61 56
138 6 198 -44 52 -74 59 -253 59 l-160 0 0 108 c0 104 1 110 26 133 25 24 29
24 254 29 227 5 229 5 256 30 74 68 65 192 -18 251 -40 29 -126 36 -373 29z"/>
<path d="M5345 2443 c-11 -3 -35 -16 -55 -29 -28 -19 -31 -24 -15 -25 20 0 20
0 0 -8 -11 -5 -23 -7 -27 -4 -5 2 -8 -3 -8 -11 0 -9 5 -16 10 -16 6 0 10 5 10
10 0 6 4 10 8 10 5 0 9 -7 9 -15 0 -8 -4 -12 -9 -9 -4 3 -8 -3 -8 -13 0 -15
-2 -16 -10 -3 -7 11 -9 7 -7 -15 1 -16 7 -33 12 -37 6 -5 5 -11 -4 -17 -16
-10 -7 -46 9 -36 5 3 10 -1 10 -9 0 -9 -5 -16 -11 -16 -5 0 -7 -5 -4 -10 4 -6
12 -7 18 -3 7 3 4 -3 -5 -14 -20 -21 -24 -43 -8 -43 5 0 7 6 4 14 -7 18 17 16
40 -3 16 -13 56 -7 56 10 0 5 7 9 15 9 8 0 15 5 15 10 0 6 12 15 26 20 17 7
24 15 20 25 -3 8 -1 17 4 20 6 4 10 -3 10 -15 0 -12 4 -19 9 -16 11 7 2 48
-12 57 -5 4 6 12 25 19 18 6 28 14 21 17 -7 2 -10 10 -7 17 3 8 -4 16 -16 19
-12 3 -19 10 -15 16 6 11 -40 61 -57 61 -5 0 -7 4 -3 9 3 5 18 8 33 6 l27 -4
-30 14 c-31 15 -46 16 -80 8z m30 -16 c-35 -24 -55 -28 -55 -11 0 8 3 13 8 11
4 -3 16 -1 27 4 31 12 41 10 20 -4z"/>
<path d="M5477 2395 c10 -13 25 -27 33 -30 8 -4 2 8 -14 24 -36 37 -43 40 -19
6z"/>
<path d="M970 2081 c0 -5 8 -12 18 -14 10 -3 6 -5 -10 -6 -38 -1 -35 -16 5
-29 18 -5 24 -10 14 -11 -11 -1 -15 -6 -11 -13 4 -6 -1 -17 -11 -24 -25 -19
-20 -21 50 -25 54 -4 60 -2 61 16 2 35 4 38 19 25 13 -11 15 -8 15 14 0 14 5
26 10 26 6 0 10 5 10 10 0 6 -9 10 -20 10 -11 0 -20 4 -20 9 0 13 -35 20 -53
10 -10 -6 -18 -5 -22 1 -8 13 -55 13 -55 1z m90 -85 c0 -3 -4 -8 -10 -11 -5
-3 -10 -1 -10 4 0 6 5 11 10 11 6 0 10 -2 10 -4z"/>
<path d="M2513 2030 c-144 -29 -302 -164 -355 -304 -32 -85 -32 -223 0 -318
63 -182 199 -304 385 -345 67 -14 89 -15 150 -5 167 29 308 133 386 287 43 84
45 91 49 194 3 89 0 116 -17 165 -55 155 -179 272 -340 320 -58 17 -186 20
-258 6z m223 -296 c23 -12 53 -41 72 -70 32 -46 34 -54 30 -115 -3 -53 -9 -75
-33 -108 -90 -131 -293 -113 -361 33 -43 91 -24 198 43 241 72 48 177 55 249
19z"/>
<path d="M7112 2029 c-35 -7 -66 -31 -85 -64 -8 -13 -14 -106 -17 -262 l-5
-241 -31 -38 c-16 -21 -46 -43 -65 -50 -84 -30 -186 -5 -230 57 -23 33 -24 40
-29 281 l-5 248 -33 32 c-31 31 -36 33 -107 33 -68 0 -76 -2 -104 -29 -17 -17
-36 -46 -41 -65 -12 -45 -13 -382 0 -477 25 -190 137 -329 309 -384 79 -25
124 -25 229 0 46 11 88 20 94 20 17 0 2 -123 -20 -174 -45 -102 -176 -133
-319 -77 l-72 29 -34 -24 c-95 -64 -121 -153 -69 -235 55 -86 150 -129 281
-129 97 1 148 13 241 57 98 47 210 158 252 251 64 141 72 243 63 761 l-8 395
-36 38 c-40 42 -99 60 -159 47z"/>
<path d="M3365 2023 c-34 -8 -86 -54 -101 -89 -11 -26 -14 -108 -14 -394 0
-395 0 -393 60 -444 26 -22 42 -26 90 -26 48 0 64 4 90 26 57 49 60 62 60 306
0 158 4 230 13 248 23 46 91 88 154 95 84 10 91 13 118 53 47 68 26 155 -48
201 -72 44 -150 35 -216 -24 l-38 -35 -24 26 c-39 42 -101 66 -144 57z"/>
<path d="M4278 2017 c-20 -8 -49 -23 -64 -34 l-28 -20 -39 28 c-52 38 -99 38
-155 2 -81 -53 -82 -59 -82 -464 0 -348 1 -355 23 -393 12 -21 38 -47 57 -57
68 -37 176 -18 220 39 19 23 20 41 20 283 0 279 3 300 51 325 44 22 82 18 111
-13 46 -50 50 -68 52 -237 2 -127 6 -173 20 -216 11 -30 22 -57 26 -60 4 -3 9
-12 12 -20 9 -27 28 115 37 277 10 173 21 216 67 252 41 32 109 26 138 -12 20
-27 21 -44 26 -297 5 -250 6 -269 25 -290 31 -34 70 -50 122 -50 59 0 110 26
141 70 21 32 22 40 22 299 0 300 -8 353 -63 430 -79 109 -199 171 -332 171
-56 0 -82 -5 -122 -26 l-52 -25 -42 22 c-53 27 -142 34 -191 16z"/>
<path d="M956 2007 c3 -10 9 -15 12 -12 3 3 0 11 -7 18 -10 9 -11 8 -5 -6z"/>
<path d="M5325 1986 c-17 -7 -44 -29 -62 -49 -28 -32 -32 -45 -38 -119 -4 -46
-5 -212 -3 -370 3 -271 4 -288 24 -314 33 -45 70 -67 121 -71 59 -5 117 25
147 77 20 33 21 53 24 370 2 212 0 348 -7 370 -13 43 -64 93 -110 109 -43 14
-58 13 -96 -3z"/>
<path d="M5850 850 c-92 -31 -135 -105 -99 -171 16 -31 96 -77 156 -90 59 -14
75 -31 50 -56 -20 -20 -76 -19 -116 2 -39 20 -61 19 -89 -5 -33 -28 -24 -50
31 -79 73 -37 141 -39 205 -7 59 30 82 65 82 125 0 50 -34 81 -116 105 -83 24
-109 39 -109 61 0 31 61 42 121 22 51 -17 65 -13 85 26 19 34 -25 65 -116 80
-17 3 -55 -3 -85 -13z"/>
<path d="M1375 847 c-16 -8 -45 -28 -62 -45 -28 -25 -33 -37 -33 -75 0 -39 5
-49 40 -81 22 -19 52 -38 67 -42 108 -24 127 -33 117 -57 -12 -34 -101 -34
-152 0 -21 13 -26 13 -45 -4 -46 -38 -43 -53 19 -89 99 -58 216 -34 261 55 46
90 2 142 -153 181 -77 19 -81 62 -8 76 24 4 45 0 73 -14 l40 -21 26 31 c14 17
24 35 22 41 -6 20 -80 51 -131 54 -29 2 -64 -3 -81 -10z"/>
<path d="M4324 850 c-79 -18 -144 -83 -164 -162 -31 -124 80 -268 207 -268 51
0 120 24 151 53 39 36 72 111 72 164 0 94 -77 191 -170 212 -51 12 -53 12 -96
1z m105 -98 c47 -25 74 -76 67 -127 -7 -54 -60 -105 -111 -105 -142 0 -188
180 -61 236 42 18 65 17 105 -4z"/>
<path d="M1722 838 c-8 -8 -12 -67 -12 -198 0 -211 6 -232 57 -215 l28 10 3
108 c2 65 7 107 13 105 5 -2 26 -26 47 -53 53 -70 70 -69 127 4 25 34 50 61
56 61 5 0 9 -46 9 -104 0 -110 9 -136 49 -136 35 0 39 22 40 203 1 200 -5 227
-46 227 -16 0 -33 -4 -38 -8 -14 -9 -99 -121 -114 -149 -6 -13 -15 -23 -19
-23 -4 0 -22 22 -40 48 -80 119 -126 154 -160 120z"/>
<path d="M2394 842 c-16 -10 -36 -52 -77 -157 -19 -49 -49 -121 -68 -159 l-33
-68 23 -19 c13 -11 31 -19 41 -19 20 0 50 31 50 52 0 26 22 35 93 35 l68 0 30
-43 c32 -47 65 -58 89 -29 10 13 8 28 -13 83 -31 80 -122 290 -137 315 -10 17
-46 23 -66 9z m57 -192 c15 -27 22 -51 18 -52 -5 -2 -29 -2 -53 0 l-43 4 18
38 c11 22 19 44 19 50 0 23 16 7 41 -40z"/>
<path d="M2730 831 c-6 -12 -10 -92 -10 -191 0 -99 4 -179 10 -191 7 -13 21
-19 45 -19 l34 0 3 58 c3 53 5 57 29 60 22 3 36 -8 79 -57 55 -64 93 -78 120
-46 9 11 5 23 -24 61 -20 26 -36 50 -36 54 0 5 13 22 29 39 56 60 60 144 8
199 -40 43 -70 52 -176 52 -89 0 -101 -2 -111 -19z m208 -87 c55 -38 -1 -107
-83 -102 l-40 3 -3 58 -3 57 53 0 c32 0 62 -6 76 -16z"/>
<path d="M3130 820 c-18 -43 -1 -60 60 -60 47 0 47 0 54 -37 3 -21 6 -88 6
-150 0 -61 3 -118 6 -127 7 -19 55 -21 72 -4 8 8 12 59 12 165 l0 152 63 3
c60 3 62 4 65 31 6 53 -6 57 -173 57 l-153 0 -12 -30z"/>
<path d="M3779 834 c-10 -12 -15 -62 -17 -188 -3 -186 4 -218 48 -224 35 -6
50 22 50 94 l0 61 46 7 c26 3 66 6 90 6 l44 0 0 40 0 40 -49 0 c-26 0 -69 3
-95 6 -44 6 -46 8 -46 38 0 55 8 58 115 54 83 -2 99 0 108 14 8 12 8 24 -1 42
l-12 26 -134 0 c-111 0 -136 -3 -147 -16z"/>
<path d="M4710 824 c-12 -32 -1 -374 13 -391 15 -20 55 -15 67 6 5 11 10 43
10 71 0 43 3 51 16 46 9 -3 20 -6 25 -6 5 0 32 -29 60 -65 52 -67 68 -74 114
-53 32 14 32 18 -6 54 -17 16 -37 41 -45 56 -12 24 -12 27 11 42 63 41 81 142
36 204 -34 48 -76 62 -190 62 -100 0 -102 0 -111 -26z m195 -74 c30 -11 47
-47 34 -72 -10 -18 -67 -38 -111 -38 -23 0 -27 5 -33 40 -10 62 0 80 45 80 21
0 50 -4 65 -10z"/>
<path d="M5159 823 c-6 -16 -13 -105 -15 -200 -5 -164 -4 -172 15 -182 30 -17
59 -13 71 8 5 11 10 65 10 121 0 62 4 100 10 98 5 -2 24 -28 42 -58 45 -76 74
-79 133 -16 23 25 45 46 49 46 3 0 6 -28 6 -62 0 -67 13 -135 27 -149 6 -6 22
-5 40 1 l30 11 6 164 c7 173 3 217 -20 237 -27 22 -111 -41 -177 -132 l-17
-25 -32 39 c-104 128 -156 157 -178 99z"/>
</g>
</svg>
